<mxfile host="65bd71144e">
    <diagram id="RhBw_T1qq-p40jK1d1-p" name="Page-1">
        <mxGraphModel dx="812" dy="575" grid="1" gridSize="10" guides="1" tooltips="1" connect="1" arrows="1" fold="1" page="1" pageScale="1" pageWidth="827" pageHeight="1169" math="0" shadow="0">
            <root>
                <mxCell id="0"/>
                <mxCell id="1" parent="0"/>
                <mxCell id="2" value="" style="ellipse;shape=doubleEllipse;whiteSpace=wrap;html=1;aspect=fixed;fillColor=none;gradientColor=none;" parent="1" vertex="1">
                    <mxGeometry x="294.25" width="51.5" height="51.5" as="geometry"/>
                </mxCell>
                <mxCell id="3" value="" style="endArrow=classic;html=1;strokeWidth=3;exitX=0.5;exitY=1;exitDx=0;exitDy=0;entryX=0.5;entryY=0;entryDx=0;entryDy=0;" parent="1" source="2" target="57" edge="1">
                    <mxGeometry width="50" height="50" relative="1" as="geometry">
                        <mxPoint x="320" y="90" as="sourcePoint"/>
                        <mxPoint x="320" y="150" as="targetPoint"/>
                    </mxGeometry>
                </mxCell>
                <mxCell id="6" value="" style="endArrow=classic;html=1;strokeWidth=3;exitX=1;exitY=0.5;exitDx=0;exitDy=0;entryX=0;entryY=0.5;entryDx=0;entryDy=0;" parent="1" source="57" target="66" edge="1">
                    <mxGeometry width="50" height="50" relative="1" as="geometry">
                        <mxPoint x="380" y="160" as="sourcePoint"/>
                        <mxPoint x="550" y="150" as="targetPoint"/>
                        <Array as="points">
                            <mxPoint x="510" y="120"/>
                        </Array>
                    </mxGeometry>
                </mxCell>
                <mxCell id="7" value="" style="edgeStyle=segmentEdgeStyle;endArrow=classic;html=1;strokeWidth=3;exitX=0.5;exitY=0;exitDx=0;exitDy=0;entryX=0.75;entryY=0;entryDx=0;entryDy=0;" parent="1" source="66" target="57" edge="1">
                    <mxGeometry width="50" height="50" relative="1" as="geometry">
                        <mxPoint x="589" y="100" as="sourcePoint"/>
                        <mxPoint x="320" y="80" as="targetPoint"/>
                        <Array as="points">
                            <mxPoint x="590" y="60"/>
                            <mxPoint x="350" y="60"/>
                        </Array>
                    </mxGeometry>
                </mxCell>
                <mxCell id="8" value="[Erreur sur l'identifiant ou mot de passe]" style="text;html=1;align=center;verticalAlign=middle;resizable=0;points=[];autosize=1;strokeColor=none;fillColor=none;" parent="1" vertex="1">
                    <mxGeometry x="593.5" y="70" width="230" height="20" as="geometry"/>
                </mxCell>
                <mxCell id="10" value="[Identifiant et mot de passe OK]" style="text;html=1;align=center;verticalAlign=middle;resizable=0;points=[];autosize=1;strokeColor=none;fillColor=none;" parent="1" vertex="1">
                    <mxGeometry x="600" y="170" width="180" height="20" as="geometry"/>
                </mxCell>
                <mxCell id="48" value="" style="edgeStyle=none;html=1;strokeWidth=3;exitX=0.5;exitY=1;exitDx=0;exitDy=0;" parent="1" source="56" edge="1">
                    <mxGeometry relative="1" as="geometry">
                        <mxPoint x="321.5" y="240" as="sourcePoint"/>
                        <mxPoint x="321.5" y="273" as="targetPoint"/>
                    </mxGeometry>
                </mxCell>
                <mxCell id="46" value="" style="line;strokeWidth=8;html=1;perimeter=backbonePerimeter;points=[];outlineConnect=0;" parent="1" vertex="1">
                    <mxGeometry x="141.5" y="270" width="360" height="10" as="geometry"/>
                </mxCell>
                <mxCell id="50" value="" style="endArrow=classic;html=1;strokeWidth=3;entryX=0.5;entryY=0;entryDx=0;entryDy=0;" parent="1" target="60" edge="1">
                    <mxGeometry width="50" height="50" relative="1" as="geometry">
                        <mxPoint x="238" y="275.82352941176487" as="sourcePoint"/>
                        <mxPoint x="238" y="510" as="targetPoint"/>
                        <Array as="points">
                            <mxPoint x="238" y="310"/>
                        </Array>
                    </mxGeometry>
                </mxCell>
                <mxCell id="51" value="" style="endArrow=classic;html=1;strokeWidth=3;entryX=0.5;entryY=0;entryDx=0;entryDy=0;" parent="1" target="59" edge="1">
                    <mxGeometry width="50" height="50" relative="1" as="geometry">
                        <mxPoint x="397.9999999999998" y="275.82352941176487" as="sourcePoint"/>
                        <mxPoint x="398" y="340" as="targetPoint"/>
                        <Array as="points">
                            <mxPoint x="398" y="320"/>
                        </Array>
                    </mxGeometry>
                </mxCell>
                <mxCell id="56" value="&lt;span&gt;Accès à la page du formulaire&lt;/span&gt;" style="rounded=1;whiteSpace=wrap;html=1;" parent="1" vertex="1">
                    <mxGeometry x="261.5" y="180" width="120" height="60" as="geometry"/>
                </mxCell>
                <mxCell id="57" value="Se connecter" style="rounded=1;whiteSpace=wrap;html=1;" parent="1" vertex="1">
                    <mxGeometry x="260" y="90" width="120" height="60" as="geometry"/>
                </mxCell>
                <mxCell id="59" value="Récupération du nombre de mots de l'utilisateur" style="rounded=1;whiteSpace=wrap;html=1;" parent="1" vertex="1">
                    <mxGeometry x="338" y="340" width="120" height="60" as="geometry"/>
                </mxCell>
                <mxCell id="84" style="edgeStyle=none;html=1;strokeWidth=3;" parent="1" edge="1">
                    <mxGeometry relative="1" as="geometry">
                        <mxPoint x="238" y="695" as="targetPoint"/>
                        <mxPoint x="238" y="570" as="sourcePoint"/>
                    </mxGeometry>
                </mxCell>
                <mxCell id="60" value="&lt;font style=&quot;font-size: 12px&quot;&gt;Affichage&amp;nbsp;&lt;span style=&quot;line-height: 107% ; font-family: &amp;#34;calibri&amp;#34; , sans-serif&quot;&gt;entête du tableau&amp;nbsp;&lt;/span&gt;&lt;/font&gt;" style="rounded=1;whiteSpace=wrap;html=1;" parent="1" vertex="1">
                    <mxGeometry x="176.5" y="520" width="120" height="60" as="geometry"/>
                </mxCell>
                <mxCell id="63" value="Allocation de mots&amp;nbsp;" style="rounded=1;whiteSpace=wrap;html=1;" parent="1" vertex="1">
                    <mxGeometry x="653.5" y="280" width="120" height="60" as="geometry"/>
                </mxCell>
                <mxCell id="66" value="" style="rhombus;whiteSpace=wrap;html=1;" parent="1" vertex="1">
                    <mxGeometry x="560" y="90" width="60" height="60" as="geometry"/>
                </mxCell>
                <mxCell id="68" value="" style="rhombus;whiteSpace=wrap;html=1;" parent="1" vertex="1">
                    <mxGeometry x="448" y="400" width="60" height="60" as="geometry"/>
                </mxCell>
                <mxCell id="70" value="" style="edgeStyle=segmentEdgeStyle;endArrow=classic;html=1;strokeWidth=3;exitX=1;exitY=0.5;exitDx=0;exitDy=0;entryX=0.5;entryY=0;entryDx=0;entryDy=0;" parent="1" source="59" target="68" edge="1">
                    <mxGeometry width="50" height="50" relative="1" as="geometry">
                        <mxPoint x="488" y="370" as="sourcePoint"/>
                        <mxPoint x="508" y="320" as="targetPoint"/>
                    </mxGeometry>
                </mxCell>
                <mxCell id="71" value="[Nombre de mots = 0]" style="text;html=1;align=center;verticalAlign=middle;resizable=0;points=[];autosize=1;strokeColor=none;fillColor=none;" parent="1" vertex="1">
                    <mxGeometry x="561.5" y="440" width="130" height="20" as="geometry"/>
                </mxCell>
                <mxCell id="72" value="" style="edgeStyle=segmentEdgeStyle;endArrow=classic;html=1;strokeWidth=3;exitX=1;exitY=0.5;exitDx=0;exitDy=0;entryX=0.5;entryY=1;entryDx=0;entryDy=0;" parent="1" source="68" edge="1">
                    <mxGeometry width="50" height="50" relative="1" as="geometry">
                        <mxPoint x="578" y="430" as="sourcePoint"/>
                        <mxPoint x="715" y="340" as="targetPoint"/>
                        <Array as="points">
                            <mxPoint x="715" y="430"/>
                        </Array>
                    </mxGeometry>
                </mxCell>
                <mxCell id="75" value="" style="edgeStyle=segmentEdgeStyle;endArrow=classic;html=1;strokeWidth=3;exitX=0;exitY=0.5;exitDx=0;exitDy=0;entryX=0.75;entryY=0;entryDx=0;entryDy=0;" parent="1" target="59" edge="1">
                    <mxGeometry width="50" height="50" relative="1" as="geometry">
                        <mxPoint x="655" y="310" as="sourcePoint"/>
                        <mxPoint x="557.94" y="270" as="targetPoint"/>
                    </mxGeometry>
                </mxCell>
                <mxCell id="77" value="" style="endArrow=classic;html=1;strokeWidth=3;exitX=0.5;exitY=1;exitDx=0;exitDy=0;entryX=0.5;entryY=0;entryDx=0;entryDy=0;" parent="1" source="68" target="82" edge="1">
                    <mxGeometry width="50" height="50" relative="1" as="geometry">
                        <mxPoint x="578" y="520" as="sourcePoint"/>
                        <mxPoint x="538" y="517.9999999999998" as="targetPoint"/>
                    </mxGeometry>
                </mxCell>
                <mxCell id="78" value="[Nombre de mots != 0]" style="text;html=1;align=center;verticalAlign=middle;resizable=0;points=[];autosize=1;strokeColor=none;fillColor=none;" parent="1" vertex="1">
                    <mxGeometry x="333" y="460" width="130" height="20" as="geometry"/>
                </mxCell>
                <mxCell id="85" style="edgeStyle=none;html=1;strokeWidth=3;" parent="1" source="81" target="86" edge="1">
                    <mxGeometry relative="1" as="geometry">
                        <mxPoint x="478" y="720" as="targetPoint"/>
                    </mxGeometry>
                </mxCell>
                <mxCell id="81" value="Génération du tableau contenant les mots" style="rounded=1;whiteSpace=wrap;html=1;" parent="1" vertex="1">
                    <mxGeometry x="418" y="610" width="120" height="60" as="geometry"/>
                </mxCell>
                <mxCell id="83" value="" style="edgeStyle=none;html=1;strokeWidth=3;" parent="1" source="82" target="81" edge="1">
                    <mxGeometry relative="1" as="geometry"/>
                </mxCell>
                <mxCell id="82" value="Récupération liste des mots" style="rounded=1;whiteSpace=wrap;html=1;" parent="1" vertex="1">
                    <mxGeometry x="418" y="520" width="120" height="60" as="geometry"/>
                </mxCell>
                <mxCell id="86" value="" style="line;strokeWidth=8;html=1;perimeter=backbonePerimeter;points=[];outlineConnect=0;" parent="1" vertex="1">
                    <mxGeometry x="160" y="690" width="360" height="10" as="geometry"/>
                </mxCell>
                <mxCell id="87" value="" style="edgeStyle=segmentEdgeStyle;endArrow=classic;html=1;strokeWidth=3;exitX=0.5;exitY=1;exitDx=0;exitDy=0;entryX=1;entryY=0.5;entryDx=0;entryDy=0;" parent="1" source="66" target="56" edge="1">
                    <mxGeometry width="50" height="50" relative="1" as="geometry">
                        <mxPoint x="536.5" y="220" as="sourcePoint"/>
                        <mxPoint x="130" y="230" as="targetPoint"/>
                        <Array as="points">
                            <mxPoint x="590" y="210"/>
                        </Array>
                    </mxGeometry>
                </mxCell>
                <mxCell id="148" style="edgeStyle=none;html=1;exitX=0;exitY=0.5;exitDx=0;exitDy=0;entryX=1;entryY=0.5;entryDx=0;entryDy=0;strokeWidth=3;" edge="1" parent="1" source="90" target="143">
                    <mxGeometry relative="1" as="geometry"/>
                </mxCell>
                <mxCell id="90" value="" style="rhombus;whiteSpace=wrap;html=1;" parent="1" vertex="1">
                    <mxGeometry x="310" y="879" width="60" height="60" as="geometry"/>
                </mxCell>
                <mxCell id="93" value="" style="edgeStyle=segmentEdgeStyle;endArrow=classic;html=1;strokeWidth=3;exitX=1;exitY=0.5;exitDx=0;exitDy=0;entryX=0;entryY=0.5;entryDx=0;entryDy=0;" parent="1" source="90" target="99" edge="1">
                    <mxGeometry width="50" height="50" relative="1" as="geometry">
                        <mxPoint x="400" y="749" as="sourcePoint"/>
                        <mxPoint x="610" y="889" as="targetPoint"/>
                    </mxGeometry>
                </mxCell>
                <mxCell id="94" value="" style="edgeStyle=segmentEdgeStyle;endArrow=classic;html=1;strokeWidth=3;exitX=0.5;exitY=1;exitDx=0;exitDy=0;entryX=0.5;entryY=1;entryDx=0;entryDy=0;" parent="1" source="90" target="99" edge="1">
                    <mxGeometry width="50" height="50" relative="1" as="geometry">
                        <mxPoint x="400" y="749" as="sourcePoint"/>
                        <mxPoint x="340" y="959" as="targetPoint"/>
                        <Array as="points">
                            <mxPoint x="340" y="960"/>
                            <mxPoint x="540" y="960"/>
                        </Array>
                    </mxGeometry>
                </mxCell>
                <mxCell id="95" value="[Afficher le contexte]" style="text;html=1;align=center;verticalAlign=middle;resizable=0;points=[];autosize=1;strokeColor=none;fillColor=none;" parent="1" vertex="1">
                    <mxGeometry x="200" y="870" width="120" height="20" as="geometry"/>
                </mxCell>
                <mxCell id="96" value="[Vérifier la saisie]" style="text;html=1;align=center;verticalAlign=middle;resizable=0;points=[];autosize=1;strokeColor=none;fillColor=none;" parent="1" vertex="1">
                    <mxGeometry x="353" y="870" width="110" height="20" as="geometry"/>
                </mxCell>
                <mxCell id="97" value="[Envoyer la saisie]" style="text;html=1;align=center;verticalAlign=middle;resizable=0;points=[];autosize=1;strokeColor=none;fillColor=none;" parent="1" vertex="1">
                    <mxGeometry x="348" y="930" width="110" height="20" as="geometry"/>
                </mxCell>
                <mxCell id="99" value="Vérification des champs saisis" style="rounded=1;whiteSpace=wrap;html=1;" parent="1" vertex="1">
                    <mxGeometry x="480" y="879" width="120" height="60" as="geometry"/>
                </mxCell>
                <mxCell id="149" style="edgeStyle=none;html=1;exitX=1;exitY=0.5;exitDx=0;exitDy=0;entryX=0;entryY=0.5;entryDx=0;entryDy=0;strokeWidth=3;" edge="1" parent="1" source="101" target="128">
                    <mxGeometry relative="1" as="geometry"/>
                </mxCell>
                <mxCell id="101" value="Affichages des contextes" style="rounded=1;whiteSpace=wrap;html=1;" parent="1" vertex="1">
                    <mxGeometry x="60" y="790" width="120" height="60" as="geometry"/>
                </mxCell>
                <mxCell id="105" value="" style="endArrow=classic;html=1;strokeWidth=3;exitX=1;exitY=0.5;exitDx=0;exitDy=0;entryX=0;entryY=0.5;entryDx=0;entryDy=0;" parent="1" source="99" target="111" edge="1">
                    <mxGeometry width="50" height="50" relative="1" as="geometry">
                        <mxPoint x="400" y="859" as="sourcePoint"/>
                        <mxPoint x="620" y="889" as="targetPoint"/>
                    </mxGeometry>
                </mxCell>
                <mxCell id="107" value="[Erreur]" style="text;html=1;align=center;verticalAlign=middle;resizable=0;points=[];autosize=1;strokeColor=none;fillColor=none;" parent="1" vertex="1">
                    <mxGeometry x="660" y="839" width="60" height="20" as="geometry"/>
                </mxCell>
                <mxCell id="108" value="" style="edgeStyle=segmentEdgeStyle;endArrow=classic;html=1;strokeWidth=3;exitX=0.5;exitY=1;exitDx=0;exitDy=0;entryX=0.5;entryY=0;entryDx=0;entryDy=0;" parent="1" target="112" edge="1" source="111">
                    <mxGeometry width="50" height="50" relative="1" as="geometry">
                        <mxPoint x="650" y="919" as="sourcePoint"/>
                        <mxPoint x="650" y="959" as="targetPoint"/>
                        <Array as="points"/>
                    </mxGeometry>
                </mxCell>
                <mxCell id="109" value="[Aucune erreur]" style="text;html=1;align=center;verticalAlign=middle;resizable=0;points=[];autosize=1;strokeColor=none;fillColor=none;" parent="1" vertex="1">
                    <mxGeometry x="660" y="939" width="100" height="20" as="geometry"/>
                </mxCell>
                <mxCell id="111" value="" style="rhombus;whiteSpace=wrap;html=1;" parent="1" vertex="1">
                    <mxGeometry x="631.5" y="879" width="60" height="60" as="geometry"/>
                </mxCell>
                <mxCell id="117" style="edgeStyle=none;html=1;strokeWidth=3;exitX=1;exitY=0.5;exitDx=0;exitDy=0;entryX=0.833;entryY=-0.013;entryDx=0;entryDy=0;entryPerimeter=0;" parent="1" source="112" target="128" edge="1">
                    <mxGeometry relative="1" as="geometry">
                        <mxPoint x="390" y="760" as="targetPoint"/>
                        <Array as="points">
                            <mxPoint x="780" y="1010"/>
                            <mxPoint x="780" y="740"/>
                            <mxPoint x="380" y="740"/>
                        </Array>
                    </mxGeometry>
                </mxCell>
                <mxCell id="112" value="" style="rhombus;whiteSpace=wrap;html=1;" parent="1" vertex="1">
                    <mxGeometry x="631.5" y="980" width="60" height="60" as="geometry"/>
                </mxCell>
                <mxCell id="113" value="" style="edgeStyle=segmentEdgeStyle;endArrow=classic;html=1;strokeWidth=3;exitX=0.5;exitY=1;exitDx=0;exitDy=0;entryX=0.5;entryY=0;entryDx=0;entryDy=0;" parent="1" source="112" target="122" edge="1">
                    <mxGeometry width="50" height="50" relative="1" as="geometry">
                        <mxPoint x="510" y="829" as="sourcePoint"/>
                        <mxPoint x="650" y="1079" as="targetPoint"/>
                    </mxGeometry>
                </mxCell>
                <mxCell id="116" value="[Bouton envoyer]" style="text;html=1;align=center;verticalAlign=middle;resizable=0;points=[];autosize=1;strokeColor=none;fillColor=none;" parent="1" vertex="1">
                    <mxGeometry x="550" y="1040" width="110" height="20" as="geometry"/>
                </mxCell>
                <mxCell id="118" value="[Bouton vérifier]" style="text;html=1;align=center;verticalAlign=middle;resizable=0;points=[];autosize=1;strokeColor=none;fillColor=none;" parent="1" vertex="1">
                    <mxGeometry x="680" y="980" width="100" height="20" as="geometry"/>
                </mxCell>
                <mxCell id="124" style="edgeStyle=none;html=1;exitX=1;exitY=0.5;exitDx=0;exitDy=0;strokeWidth=3;entryX=0.659;entryY=-0.004;entryDx=0;entryDy=0;entryPerimeter=0;" parent="1" source="122" target="128" edge="1">
                    <mxGeometry relative="1" as="geometry">
                        <mxPoint x="358" y="760" as="targetPoint"/>
                        <Array as="points">
                            <mxPoint x="810" y="1109"/>
                            <mxPoint x="810" y="710"/>
                            <mxPoint x="358" y="710"/>
                        </Array>
                    </mxGeometry>
                </mxCell>
                <mxCell id="139" style="edgeStyle=none;html=1;exitX=0;exitY=0.5;exitDx=0;exitDy=0;entryX=1;entryY=0.5;entryDx=0;entryDy=0;strokeWidth=3;" parent="1" source="122" target="138" edge="1">
                    <mxGeometry relative="1" as="geometry"/>
                </mxCell>
                <mxCell id="122" value="" style="rhombus;whiteSpace=wrap;html=1;" parent="1" vertex="1">
                    <mxGeometry x="631.5" y="1079" width="60" height="60" as="geometry"/>
                </mxCell>
                <mxCell id="125" value="[Annulation envoi]" style="text;html=1;align=center;verticalAlign=middle;resizable=0;points=[];autosize=1;strokeColor=none;fillColor=none;" parent="1" vertex="1">
                    <mxGeometry x="691.5" y="1079" width="110" height="20" as="geometry"/>
                </mxCell>
                <mxCell id="126" value="[Confirmation envoi]" style="text;html=1;align=center;verticalAlign=middle;resizable=0;points=[];autosize=1;strokeColor=none;fillColor=none;" parent="1" vertex="1">
                    <mxGeometry x="500" y="1079" width="120" height="20" as="geometry"/>
                </mxCell>
                <mxCell id="128" value="Saisie utilisateur" style="rounded=1;whiteSpace=wrap;html=1;" parent="1" vertex="1">
                    <mxGeometry x="280" y="790" width="120" height="60" as="geometry"/>
                </mxCell>
                <mxCell id="129" value="" style="endArrow=classic;html=1;strokeWidth=3;entryX=0.5;entryY=0;entryDx=0;entryDy=0;" parent="1" source="86" target="128" edge="1">
                    <mxGeometry width="50" height="50" relative="1" as="geometry">
                        <mxPoint x="340" y="870" as="sourcePoint"/>
                        <mxPoint x="390" y="820" as="targetPoint"/>
                    </mxGeometry>
                </mxCell>
                <mxCell id="130" value="" style="endArrow=classic;html=1;strokeWidth=3;exitX=0.5;exitY=1;exitDx=0;exitDy=0;entryX=0.5;entryY=0;entryDx=0;entryDy=0;" parent="1" source="128" target="90" edge="1">
                    <mxGeometry width="50" height="50" relative="1" as="geometry">
                        <mxPoint x="340" y="890" as="sourcePoint"/>
                        <mxPoint x="390" y="840" as="targetPoint"/>
                    </mxGeometry>
                </mxCell>
                <mxCell id="131" value="Affichage erreur(s)" style="rounded=1;whiteSpace=wrap;html=1;" parent="1" vertex="1">
                    <mxGeometry x="448" y="790" width="120" height="60" as="geometry"/>
                </mxCell>
                <mxCell id="133" value="" style="endArrow=classic;html=1;strokeWidth=3;exitX=0;exitY=0.5;exitDx=0;exitDy=0;entryX=1;entryY=0.5;entryDx=0;entryDy=0;" parent="1" source="131" target="128" edge="1">
                    <mxGeometry width="50" height="50" relative="1" as="geometry">
                        <mxPoint x="320" y="900" as="sourcePoint"/>
                        <mxPoint x="370" y="850" as="targetPoint"/>
                    </mxGeometry>
                </mxCell>
                <mxCell id="134" value="" style="endArrow=classic;html=1;strokeWidth=3;exitX=0.5;exitY=0;exitDx=0;exitDy=0;entryX=1;entryY=0.5;entryDx=0;entryDy=0;" parent="1" source="111" target="131" edge="1">
                    <mxGeometry width="50" height="50" relative="1" as="geometry">
                        <mxPoint x="320" y="900" as="sourcePoint"/>
                        <mxPoint x="370" y="850" as="targetPoint"/>
                        <Array as="points">
                            <mxPoint x="661" y="820"/>
                        </Array>
                    </mxGeometry>
                </mxCell>
                <mxCell id="142" style="edgeStyle=none;html=1;exitX=0;exitY=0.5;exitDx=0;exitDy=0;entryX=1;entryY=0.5;entryDx=0;entryDy=0;strokeWidth=3;" parent="1" source="138" target="140" edge="1">
                    <mxGeometry relative="1" as="geometry"/>
                </mxCell>
                <mxCell id="138" value="Envoi des données" style="rounded=1;whiteSpace=wrap;html=1;" parent="1" vertex="1">
                    <mxGeometry x="320" y="1079" width="120" height="60" as="geometry"/>
                </mxCell>
                <mxCell id="140" value="" style="ellipse;shape=doubleEllipse;whiteSpace=wrap;html=1;aspect=fixed;strokeWidth=6;fillColor=none;gradientColor=none;" parent="1" vertex="1">
                    <mxGeometry x="125.5" y="1083.5" width="51" height="51" as="geometry"/>
                </mxCell>
                <mxCell id="150" style="edgeStyle=none;html=1;exitX=0.5;exitY=0;exitDx=0;exitDy=0;entryX=0.5;entryY=1;entryDx=0;entryDy=0;strokeWidth=3;" edge="1" parent="1" source="143" target="101">
                    <mxGeometry relative="1" as="geometry"/>
                </mxCell>
                <mxCell id="143" value="Récupération du contexte du mot sélectionné" style="rounded=1;whiteSpace=wrap;html=1;" vertex="1" parent="1">
                    <mxGeometry x="60" y="879" width="120" height="60" as="geometry"/>
                </mxCell>
            </root>
        </mxGraphModel>
    </diagram>
</mxfile>